<svg xmlns="http://www.w3.org/2000/svg" width="100%" viewBox="0 0 32 32" fill="none" class="g_svg"><path d="M25.8182 4H6.18182C4.97636 4 4 4.97636 4 6.18182V25.8182C4 27.0236 4.97636 28 6.18182 28H25.8182C27.0236 28 28 27.0236 28 25.8182V6.18182C28 4.97636 27.0236 4 25.8182 4ZM11.5862 23.6364H8.368V13.2815H11.5862V23.6364ZM9.94436 11.8011C8.90691 11.8011 8.068 10.96 8.068 9.92473C8.068 8.88945 8.908 8.04945 9.94436 8.04945C10.9785 8.04945 11.8196 8.89055 11.8196 9.92473C11.8196 10.96 10.9785 11.8011 9.94436 11.8011ZM23.6407 23.6364H20.4247V18.6007C20.4247 17.3996 20.4029 15.8549 18.7524 15.8549C17.0778 15.8549 16.8204 17.1629 16.8204 18.5135V23.6364H13.6044V13.2815H16.6916V14.6964H16.7353C17.1651 13.8825 18.2145 13.024 19.78 13.024C23.0385 13.024 23.6407 15.1687 23.6407 17.9571V23.6364Z" fill="currentColor"></path></svg>