<svg xmlns="http://www.w3.org/2000/svg" width="100%" viewBox="0 0 32 32" fill="none"><path d="M29.2184 9.4375C28.9596 8.06299 27.7263 7.06201 26.2951 6.74951C24.1533 6.3125 20.1896 6 15.901 6C11.615 6 7.58782 6.3125 5.44354 6.74951C4.01486 7.06201 2.77905 7.99951 2.52021 9.4375C2.25884 11 2 13.1875 2 16C2 18.8125 2.25884 21 2.58365 22.5625C2.84502 23.937 4.0783 24.938 5.50698 25.2505C7.78068 25.6875 11.6784 26 15.967 26C20.2556 26 24.1533 25.6875 26.427 25.2505C27.8557 24.938 29.089 24.0005 29.3504 22.5625C29.6092 21 29.934 18.749 30 16C29.868 13.1875 29.5432 11 29.2184 9.4375ZM12.3941 20.375V11.625L20.319 16L12.3941 20.375Z" fill="currentColor"></path></svg>