<svg version="1.1" id="Layer_1" xmlns="http://www.w3.org/2000/svg" xmlns:xlink="http://www.w3.org/1999/xlink" x="0px" y="0px"
	 width="100%" viewBox="0 0 1920 1080" enable-background="new 0 0 1920 1080" xml:space="preserve">
<path fill="#000000" opacity="1.000000" stroke="none" 
	d="
M1921.000000,5.000004 
	C1921.000000,362.024902 1921.000000,719.049805 1920.556641,1076.465820 
	C1476.035889,1076.908081 1031.958618,1076.967041 587.881409,1077.006958 
	C392.254272,1077.024536 196.627136,1077.003540 1.000000,1077.000000 
	C1.000000,1005.975098 1.000000,934.950195 1.284786,863.160095 
	C1.695300,842.600342 1.821027,822.805786 1.964092,802.542175 
	C1.954824,761.022034 1.928219,719.970947 1.912987,678.456421 
	C1.964389,633.771729 2.008531,589.550476 2.035751,545.329163 
	C2.037692,542.177124 1.915484,539.024902 1.856952,535.412231 
	C1.852804,482.320038 1.842706,429.688477 1.920610,376.591248 
	C1.977486,341.782898 1.946359,307.440216 1.972410,272.623383 
	C2.006457,255.001678 2.008089,237.854004 1.918690,220.706787 
	C1.910502,219.136307 1.320064,217.568863 1.000000,216.000000 
	C1.000000,145.975098 1.000000,75.950188 1.437235,5.630946 
	C3.040723,5.350314 4.206975,5.376017 5.373228,5.376020 
	C642.270203,5.377738 1279.167114,5.378006 1916.064087,5.362181 
	C1917.709351,5.362140 1919.354736,5.125916 1921.000000,5.000004 
M1086.115723,749.032227 
	C1086.328491,749.178711 1086.541382,749.325256 1086.571899,750.155579 
	C1085.579468,751.694885 1084.672119,753.297424 1083.581299,754.763489 
	C1073.551636,768.243347 1063.211182,781.502747 1053.531250,795.228333 
	C1046.458618,805.256836 1038.414185,815.175110 1034.026733,826.402283 
	C1024.916992,849.713806 1017.978333,873.872253 1010.023560,897.641052 
	C1009.597717,898.913391 1008.072083,900.687317 1006.992371,900.735168 
	C997.403870,901.160034 987.527710,902.771729 978.259155,901.112976 
	C959.918396,897.830566 944.016174,889.421387 931.476685,874.774536 
	C920.700562,862.187439 913.980469,848.608276 913.776733,831.744629 
	C913.641785,820.576904 915.835022,809.957336 918.512268,799.285156 
	C921.180298,788.649353 923.620605,777.954895 926.048584,767.260681 
	C931.583496,742.882202 925.491089,721.725525 909.120117,702.900757 
	C891.864685,683.058960 870.652893,672.415833 844.257446,673.625122 
	C824.094971,674.548828 804.958496,680.350037 786.729858,688.773621 
	C756.816895,702.596741 733.554077,724.757996 713.842896,750.444214 
	C700.866211,767.354492 690.301086,786.094666 678.059570,803.598145 
	C671.342834,813.202087 664.239624,822.831116 655.813354,830.881653 
	C639.095825,846.853516 621.879700,862.414001 603.823914,876.835205 
	C591.985168,886.290894 578.861755,894.537109 565.328796,901.376221 
	C546.388550,910.948059 525.442993,913.708191 504.388428,914.983032 
	C482.597015,916.302612 461.106293,913.263123 439.801697,909.561707 
	C413.107483,904.923889 386.999817,897.648438 361.708954,887.840881 
	C337.969879,878.635132 314.628082,868.377014 294.265686,852.781799 
	C256.235168,823.654907 226.529099,787.202026 201.519409,746.570251 
	C178.034119,708.415039 170.361572,666.626587 172.510071,622.718384 
	C174.273987,586.670288 182.320251,551.552734 191.415527,516.763672 
	C197.039368,495.252747 203.249390,473.839355 210.434952,452.805359 
	C221.485611,420.457123 241.840027,393.645020 263.717285,367.961761 
	C276.815399,352.584991 290.702118,338.005341 307.863739,326.963989 
	C341.751831,305.161285 379.299835,295.325073 419.112793,295.527924 
	C439.973846,295.634216 461.041077,298.151917 481.622375,301.798004 
	C531.719971,310.673035 581.572388,320.925781 631.554443,330.461426 
	C663.638245,336.582458 694.892578,345.640778 725.399475,357.151794 
	C754.563171,368.156006 782.728149,381.328430 807.360291,400.833862 
	C822.891113,413.132202 837.815552,426.193359 853.223572,438.650696 
	C867.716370,450.368164 881.785522,462.802826 897.279846,473.048615 
	C930.445435,494.979736 968.003784,504.820251 1007.132019,508.848572 
	C1051.171387,513.382385 1092.895996,504.751770 1132.349854,484.956085 
	C1151.056152,475.570374 1168.061157,463.682526 1182.973022,448.919647 
	C1188.079712,443.864044 1188.061646,442.489868 1182.723877,437.938049 
	C1178.504028,440.521362 1173.987305,442.982269 1169.794067,445.906952 
	C1153.242798,457.451080 1135.984985,467.739624 1117.114990,475.008057 
	C1076.197510,490.768860 1034.196045,492.865265 991.396729,484.593933 
	C955.525940,477.661621 922.590393,464.261353 894.398560,440.559753 
	C877.827698,426.628143 861.519531,412.381317 845.207520,398.145233 
	C826.995056,382.250580 808.141541,367.364929 786.717102,355.824982 
	C745.055054,333.384369 700.526245,319.321411 654.386230,310.092834 
	C627.154175,304.646088 599.696045,300.332825 572.350891,295.446625 
	C535.521545,288.865753 498.730408,282.067139 461.872284,275.652679 
	C425.331635,269.293518 389.181854,272.118774 353.500702,281.589172 
	C331.235718,287.498657 309.445587,295.242828 290.864838,309.045380 
	C252.172226,337.787903 221.237030,373.804749 196.204025,414.868683 
	C181.801086,438.495148 173.536469,464.697693 166.034515,491.084229 
	C156.733002,523.800354 151.520966,557.268188 147.492996,591.033936 
	C143.413544,625.231384 145.380646,658.911133 153.193329,692.220703 
	C156.511414,706.367310 160.981903,720.433105 166.723831,733.762268 
	C171.371017,744.550110 178.509171,754.306152 184.896683,764.293274 
	C194.320984,779.028625 203.039047,794.263794 214.978058,807.264160 
	C229.843033,823.450562 244.195938,840.127136 259.502930,855.879822 
	C268.351929,864.986511 277.994751,873.630005 288.417664,880.837158 
	C312.538452,897.515869 339.189636,909.546753 366.786804,919.195923 
	C403.866547,932.160583 441.982910,940.884155 481.413208,941.448730 
	C500.497162,941.721985 519.770508,940.798523 538.678406,938.300171 
	C562.547363,935.146423 584.007324,924.729187 604.026001,911.462769 
	C624.366516,897.982971 642.435730,881.775269 660.615601,865.581055 
	C681.487305,846.989075 698.837036,825.803955 713.073425,801.874146 
	C724.383118,782.863831 736.362183,764.538086 752.063843,748.477783 
	C768.999084,731.155762 787.592468,717.129028 809.947998,707.799866 
	C823.851135,701.997986 838.136780,698.715332 853.129150,699.148010 
	C874.569153,699.766785 897.096313,717.557129 899.309570,737.705200 
	C900.739929,750.725647 898.738586,764.217590 897.445496,777.417053 
	C896.053284,791.628479 892.434692,805.706543 891.998840,819.910583 
	C890.863037,856.922913 907.627380,884.228088 939.748962,902.356628 
	C954.174988,910.498291 969.687683,913.795715 986.142761,913.842041 
	C1003.142883,913.889893 1017.857483,906.525696 1031.887207,898.650024 
	C1045.561890,890.973633 1057.620117,880.473206 1070.774536,871.798828 
	C1084.201416,862.944946 1097.031250,853.641052 1106.335449,840.183716 
	C1110.796265,833.731812 1115.682007,827.573792 1120.237427,821.467285 
	C1122.204590,830.945129 1123.663940,840.329895 1126.182251,849.421387 
	C1128.517090,857.850769 1135.287964,863.042725 1144.038940,862.542542 
	C1149.764404,862.215393 1155.491333,859.806702 1160.944824,857.642944 
	C1164.073364,856.401672 1166.656982,853.786987 1169.220093,851.978210 
	C1172.378052,859.330627 1175.094727,866.642395 1178.605225,873.550659 
	C1182.116089,880.459656 1187.810303,883.223145 1195.246948,881.271912 
	C1199.888794,880.053955 1204.358398,877.476501 1208.348267,874.706726 
	C1211.356323,872.618591 1213.480835,869.257629 1216.220581,866.216736 
	C1218.294434,868.821350 1219.608032,870.533875 1220.986938,872.192017 
	C1227.405884,879.910583 1236.114624,880.995422 1244.419312,875.130310 
	C1254.584961,867.950867 1260.008423,857.992981 1261.030396,845.741333 
	C1261.492188,840.206604 1261.108765,834.601440 1261.108765,828.762146 
	C1265.351074,831.992737 1269.667603,835.176880 1273.873047,838.501587 
	C1286.156616,848.213074 1299.121094,856.796387 1313.060547,864.033447 
	C1348.199829,882.276978 1385.535522,888.042969 1424.417480,883.051208 
	C1446.300537,880.241882 1467.831055,880.033020 1488.354248,888.241089 
	C1505.693115,895.175537 1522.472656,903.650696 1539.044678,912.314514 
	C1551.627441,918.892761 1562.336182,928.956055 1576.130859,933.327942 
	C1580.020386,934.560730 1584.625610,934.706116 1588.670166,934.006836 
	C1594.848755,932.938599 1597.791382,928.201172 1595.217041,922.537659 
	C1592.981934,917.620728 1589.312500,912.881348 1585.161255,909.389648 
	C1563.694092,891.332581 1539.174561,878.652527 1512.961426,868.810364 
	C1484.995728,858.310303 1456.447388,854.953247 1427.174805,860.710999 
	C1404.800293,865.111755 1382.487305,865.636047 1360.202759,861.465820 
	C1334.423950,856.641602 1311.496704,845.069153 1290.799927,829.215088 
	C1266.645752,810.712524 1240.284058,797.208618 1210.007202,792.373901 
	C1190.431152,789.247864 1171.085693,785.270630 1152.289307,778.902954 
	C1136.709961,773.624939 1122.282227,766.305969 1110.881714,754.099060 
	C1101.358154,743.901855 1105.013794,727.041565 1118.066772,722.011230 
	C1124.210571,719.643616 1130.786499,718.075500 1137.309204,717.071167 
	C1159.394775,713.670898 1181.177734,716.612671 1202.667358,721.638367 
	C1234.246460,729.023743 1265.808228,731.297241 1297.551025,723.003174 
	C1308.011475,720.269958 1318.547607,717.562195 1326.877930,710.026917 
	C1329.264526,707.868164 1332.039429,704.760315 1329.485474,701.955505 
	C1327.701294,699.996094 1323.588257,699.040833 1320.748779,699.413757 
	C1316.217651,700.008911 1311.905518,702.164673 1307.455444,703.510742 
	C1300.224121,705.698181 1292.955933,707.764526 1285.194458,710.030640 
	C1285.400146,708.552551 1285.365234,708.062866 1285.538696,707.664001 
	C1293.604004,689.130859 1295.715942,669.520081 1295.859131,649.598022 
	C1295.882446,646.342590 1295.044312,643.014709 1294.139160,639.853394 
	C1293.805908,638.688721 1292.177856,637.244263 1291.049927,637.161499 
	C1290.134766,637.094360 1288.505127,638.714783 1288.191406,639.860352 
	C1286.614258,645.618896 1285.309204,651.454895 1284.014648,657.287170 
	C1282.279053,665.105652 1280.640747,672.945740 1278.960693,680.776550 
	C1278.288818,681.060791 1277.616821,681.345093 1276.944946,681.629333 
	C1270.011597,676.320618 1263.106934,670.973877 1256.132446,665.719788 
	C1252.813354,663.219360 1252.632446,661.095337 1255.413452,657.650757 
	C1276.018677,632.129211 1296.392456,606.420715 1316.853882,580.782959 
	C1322.740234,573.407654 1328.675903,566.071838 1334.751587,558.515625 
	C1335.888916,559.420837 1336.682495,559.976624 1337.389526,560.626648 
	C1348.059570,570.436951 1358.884644,580.086060 1369.348511,590.111816 
	C1401.748291,621.154541 1435.851929,650.155212 1472.232422,676.436340 
	C1492.807861,691.299866 1515.559937,702.167664 1538.505737,712.820190 
	C1580.577271,732.351807 1623.511719,748.951904 1669.908936,754.694153 
	C1676.762329,755.542297 1683.826904,755.590332 1690.709106,755.008179 
	C1696.101074,754.552124 1699.457642,750.476990 1700.936279,745.296692 
	C1702.392334,740.195312 1699.367798,736.523438 1695.533203,734.555359 
	C1688.376953,730.882263 1681.001221,727.039856 1673.257812,725.209412 
	C1636.855835,716.604309 1600.622437,707.818909 1566.356201,692.124573 
	C1542.340942,681.125305 1517.484131,671.690186 1495.534912,656.854919 
	C1472.808960,641.494812 1450.863525,624.952209 1428.917236,608.473389 
	C1401.895630,588.183594 1375.228394,567.421875 1348.394531,546.881653 
	C1347.484985,546.185425 1346.431030,545.677734 1345.325073,545.010132 
	C1347.660889,541.862732 1349.296753,539.573181 1351.019165,537.350586 
	C1375.087402,506.290894 1399.334595,475.367767 1423.176758,444.135529 
	C1435.694702,427.737640 1447.611328,410.875580 1459.586548,394.071411 
	C1463.957397,387.937958 1466.656372,381.068268 1463.746948,373.412567 
	C1458.000366,358.292419 1446.226440,349.023499 1431.626099,344.224670 
	C1419.455078,340.224243 1409.261353,346.071381 1401.235107,355.497955 
	C1387.197266,371.985107 1372.827271,388.207123 1359.261353,405.074982 
	C1328.684692,443.093567 1298.534790,481.455170 1268.107788,519.594604 
	C1266.843384,521.179443 1264.608521,522.775879 1262.700684,522.943604 
	C1234.165894,525.452820 1205.606689,527.684570 1177.060059,530.061462 
	C1157.527100,531.687744 1141.252075,539.147278 1129.630615,555.735046 
	C1116.718384,574.165039 1101.915649,591.054565 1086.460205,607.414001 
	C1081.857056,612.286438 1077.371582,617.930359 1074.970093,624.058594 
	C1071.855469,632.007080 1070.513062,640.730652 1069.054199,649.231506 
	C1065.482422,670.046204 1062.265991,690.922119 1058.942139,711.779053 
	C1057.922607,718.176147 1056.484131,724.567627 1056.195435,731.004700 
	C1055.824219,739.274231 1061.215698,746.409424 1069.318237,748.043213 
	C1074.545288,749.097229 1080.122437,748.414490 1086.115723,749.032227 
M961.121582,180.677139 
	C959.095825,184.690536 956.841492,188.606430 955.081421,192.733139 
	C943.639648,219.559723 936.661316,247.201767 939.808716,276.713898 
	C944.269043,318.536163 965.633850,349.163940 1001.951111,369.399048 
	C1027.579346,383.678406 1055.599487,390.611298 1084.579712,394.246613 
	C1110.418945,397.487915 1133.710693,391.172394 1155.174927,376.900482 
	C1171.334961,366.155334 1184.612793,352.472473 1196.062500,336.949829 
	C1225.685181,296.789886 1232.157593,254.005722 1207.839844,209.308105 
	C1199.090576,193.226334 1187.820923,178.125092 1175.689209,164.348312 
	C1141.121826,125.093369 1096.406006,111.201614 1045.842529,119.749794 
	C1008.915283,125.992645 979.677979,146.049576 961.121582,180.677139 
z"/>
<path fill="#FFFFFF" opacity="1.000000" stroke="none" 
	d="
M1921.000000,4.500019 
	C1919.354736,5.125916 1917.709351,5.362140 1916.064087,5.362181 
	C1279.167114,5.378006 642.270203,5.377738 5.373228,5.376020 
	C4.206975,5.376017 3.040723,5.350314 1.437235,5.168307 
	C1.000000,3.666667 1.000000,2.333333 1.000000,1.000000 
	C639.500000,1.000000 1278.000000,0.999075 1916.500000,1.043079 
	C1918.434204,1.043213 1921.808228,-0.462270 1921.000000,4.500019 
z"/>
<path fill="#FEFEFE" opacity="1.000000" stroke="none" 
	d="
M1.000000,1077.498047 
	C196.627136,1077.003540 392.254272,1077.024536 587.881409,1077.006958 
	C1031.958618,1076.967041 1476.035889,1076.908081 1920.556641,1076.928467 
	C1921.000000,1078.333008 1921.000000,1079.666016 1921.000000,1080.998291 
	C1281.000000,1080.997681 641.000000,1080.997681 1.000000,1080.996582 
	C1.000000,1079.995605 1.000000,1078.995850 1.000000,1077.498047 
z"/>
<path fill="#858585" opacity="1.000000" stroke="none" 
	d="
M1.832608,377.056915 
	C1.842706,429.688477 1.852804,482.320038 1.644100,535.442749 
	C1.425298,535.933899 1.000000,536.000000 1.000000,536.000000 
	C1.000000,483.312439 1.000000,430.624878 1.207643,377.490326 
	C1.415287,377.043335 1.832608,377.056915 1.832608,377.056915 
z"/>
<path fill="#3E3E3E" opacity="1.000000" stroke="none" 
	d="
M1.000000,536.468628 
	C1.000000,536.000000 1.425298,535.933899 1.638150,535.903320 
	C1.915484,539.024902 2.037692,542.177124 2.035751,545.329163 
	C2.008531,589.550476 1.964389,633.771729 1.688483,678.482422 
	C1.452607,678.971741 1.000000,679.000000 1.000000,679.000000 
	C1.000000,631.645752 1.000000,584.291565 1.000000,536.468628 
z"/>
<path fill="#1F1F1F" opacity="1.000000" stroke="none" 
	d="
M1.000000,679.468628 
	C1.000000,679.000000 1.452607,678.971741 1.677110,678.945801 
	C1.928219,719.970947 1.954824,761.022034 1.727690,802.538208 
	C1.473950,803.003296 1.000000,803.000000 1.000000,803.000000 
	C1.000000,761.979126 1.000000,720.958191 1.000000,679.468628 
z"/>
<path fill="#626262" opacity="1.000000" stroke="none" 
	d="
M1.920610,376.591248 
	C1.832608,377.056915 1.415287,377.043335 1.207643,377.021667 
	C1.000000,342.645782 1.000000,308.291534 1.230862,273.473755 
	C1.461723,273.010223 1.915232,273.097534 1.915232,273.097534 
	C1.946359,307.440216 1.977486,341.782898 1.920610,376.591248 
z"/>
<path fill="#252525" opacity="1.000000" stroke="none" 
	d="
M1.000000,803.468628 
	C1.000000,803.000000 1.473950,803.003296 1.710352,803.007263 
	C1.821027,822.805786 1.695300,842.600342 1.284786,862.697449 
	C1.000000,843.312439 1.000000,823.624878 1.000000,803.468628 
z"/>
<path fill="#252525" opacity="1.000000" stroke="none" 
	d="
M1.972410,272.623383 
	C1.915232,273.097534 1.461723,273.010223 1.230862,273.005127 
	C1.000000,254.312439 1.000000,235.624878 1.000000,216.468658 
	C1.320064,217.568863 1.910502,219.136307 1.918690,220.706787 
	C2.008089,237.854004 2.006457,255.001678 1.972410,272.623383 
z"/>
<path fill="#FCFCFC" opacity="1.000000" stroke="none" 
	d="
M1085.542725,748.510071 
	C1080.122437,748.414490 1074.545288,749.097229 1069.318237,748.043213 
	C1061.215698,746.409424 1055.824219,739.274231 1056.195435,731.004700 
	C1056.484131,724.567627 1057.922607,718.176147 1058.942139,711.779053 
	C1062.265991,690.922119 1065.482422,670.046204 1069.054199,649.231506 
	C1070.513062,640.730652 1071.855469,632.007080 1074.970093,624.058594 
	C1077.371582,617.930359 1081.857056,612.286438 1086.460205,607.414001 
	C1101.915649,591.054565 1116.718384,574.165039 1129.630615,555.735046 
	C1141.252075,539.147278 1157.527100,531.687744 1177.060059,530.061462 
	C1205.606689,527.684570 1234.165894,525.452820 1262.700684,522.943604 
	C1264.608521,522.775879 1266.843384,521.179443 1268.107788,519.594604 
	C1298.534790,481.455170 1328.684692,443.093567 1359.261353,405.074982 
	C1372.827271,388.207123 1387.197266,371.985107 1401.235107,355.497955 
	C1409.261353,346.071381 1419.455078,340.224243 1431.626099,344.224670 
	C1446.226440,349.023499 1458.000366,358.292419 1463.746948,373.412567 
	C1466.656372,381.068268 1463.957397,387.937958 1459.586548,394.071411 
	C1447.611328,410.875580 1435.694702,427.737640 1423.176758,444.135529 
	C1399.334595,475.367767 1375.087402,506.290894 1351.019165,537.350586 
	C1349.296753,539.573181 1347.660889,541.862732 1345.325073,545.010132 
	C1346.431030,545.677734 1347.484985,546.185425 1348.394531,546.881653 
	C1375.228394,567.421875 1401.895630,588.183594 1428.917236,608.473389 
	C1450.863525,624.952209 1472.808960,641.494812 1495.534912,656.854919 
	C1517.484131,671.690186 1542.340942,681.125305 1566.356201,692.124573 
	C1600.622437,707.818909 1636.855835,716.604309 1673.257812,725.209412 
	C1681.001221,727.039856 1688.376953,730.882263 1695.533203,734.555359 
	C1699.367798,736.523438 1702.392334,740.195312 1700.936279,745.296692 
	C1699.457642,750.476990 1696.101074,754.552124 1690.709106,755.008179 
	C1683.826904,755.590332 1676.762329,755.542297 1669.908936,754.694153 
	C1623.511719,748.951904 1580.577271,732.351807 1538.505737,712.820190 
	C1515.559937,702.167664 1492.807861,691.299866 1472.232422,676.436340 
	C1435.851929,650.155212 1401.748291,621.154541 1369.348511,590.111816 
	C1358.884644,580.086060 1348.059570,570.436951 1337.389526,560.626648 
	C1336.682495,559.976624 1335.888916,559.420837 1334.751587,558.515625 
	C1328.675903,566.071838 1322.740234,573.407654 1316.853882,580.782959 
	C1296.392456,606.420715 1276.018677,632.129211 1255.413452,657.650757 
	C1252.632446,661.095337 1252.813354,663.219360 1256.132446,665.719788 
	C1263.106934,670.973877 1270.011597,676.320618 1276.944946,681.629333 
	C1277.616821,681.345093 1278.288818,681.060791 1278.960693,680.776550 
	C1280.640747,672.945740 1282.279053,665.105652 1284.014648,657.287170 
	C1285.309204,651.454895 1286.614258,645.618896 1288.191406,639.860352 
	C1288.505127,638.714783 1290.134766,637.094360 1291.049927,637.161499 
	C1292.177856,637.244263 1293.805908,638.688721 1294.139160,639.853394 
	C1295.044312,643.014709 1295.882446,646.342590 1295.859131,649.598022 
	C1295.715942,669.520081 1293.604004,689.130859 1285.538696,707.664001 
	C1285.365234,708.062866 1285.400146,708.552551 1285.194458,710.030640 
	C1292.955933,707.764526 1300.224121,705.698181 1307.455444,703.510742 
	C1311.905518,702.164673 1316.217651,700.008911 1320.748779,699.413757 
	C1323.588257,699.040833 1327.701294,699.996094 1329.485474,701.955505 
	C1332.039429,704.760315 1329.264526,707.868164 1326.877930,710.026917 
	C1318.547607,717.562195 1308.011475,720.269958 1297.551025,723.003174 
	C1265.808228,731.297241 1234.246460,729.023743 1202.667358,721.638367 
	C1181.177734,716.612671 1159.394775,713.670898 1137.309204,717.071167 
	C1130.786499,718.075500 1124.210571,719.643616 1118.066772,722.011230 
	C1105.013794,727.041565 1101.358154,743.901855 1110.881714,754.099060 
	C1122.282227,766.305969 1136.709961,773.624939 1152.289307,778.902954 
	C1171.085693,785.270630 1190.431152,789.247864 1210.007202,792.373901 
	C1240.284058,797.208618 1266.645752,810.712524 1290.799927,829.215088 
	C1311.496704,845.069153 1334.423950,856.641602 1360.202759,861.465820 
	C1382.487305,865.636047 1404.800293,865.111755 1427.174805,860.710999 
	C1456.447388,854.953247 1484.995728,858.310303 1512.961426,868.810364 
	C1539.174561,878.652527 1563.694092,891.332581 1585.161255,909.389648 
	C1589.312500,912.881348 1592.981934,917.620728 1595.217041,922.537659 
	C1597.791382,928.201172 1594.848755,932.938599 1588.670166,934.006836 
	C1584.625610,934.706116 1580.020386,934.560730 1576.130859,933.327942 
	C1562.336182,928.956055 1551.627441,918.892761 1539.044678,912.314514 
	C1522.472656,903.650696 1505.693115,895.175537 1488.354248,888.241089 
	C1467.831055,880.033020 1446.300537,880.241882 1424.417480,883.051208 
	C1385.535522,888.042969 1348.199829,882.276978 1313.060547,864.033447 
	C1299.121094,856.796387 1286.156616,848.213074 1273.873047,838.501587 
	C1269.667603,835.176880 1265.351074,831.992737 1261.108765,828.762146 
	C1261.108765,834.601440 1261.492188,840.206604 1261.030396,845.741333 
	C1260.008423,857.992981 1254.584961,867.950867 1244.419312,875.130310 
	C1236.114624,880.995422 1227.405884,879.910583 1220.986938,872.192017 
	C1219.608032,870.533875 1218.294434,868.821350 1216.220581,866.216736 
	C1213.480835,869.257629 1211.356323,872.618591 1208.348267,874.706726 
	C1204.358398,877.476501 1199.888794,880.053955 1195.246948,881.271912 
	C1187.810303,883.223145 1182.116089,880.459656 1178.605225,873.550659 
	C1175.094727,866.642395 1172.378052,859.330627 1169.220093,851.978210 
	C1166.656982,853.786987 1164.073364,856.401672 1160.944824,857.642944 
	C1155.491333,859.806702 1149.764404,862.215393 1144.038940,862.542542 
	C1135.287964,863.042725 1128.517090,857.850769 1126.182251,849.421387 
	C1123.663940,840.329895 1122.204590,830.945129 1120.237427,821.467285 
	C1115.682007,827.573792 1110.796265,833.731812 1106.335449,840.183716 
	C1097.031250,853.641052 1084.201416,862.944946 1070.774536,871.798828 
	C1057.620117,880.473206 1045.561890,890.973633 1031.887207,898.650024 
	C1017.857483,906.525696 1003.142883,913.889893 986.142761,913.842041 
	C969.687683,913.795715 954.174988,910.498291 939.748962,902.356628 
	C907.627380,884.228088 890.863037,856.922913 891.998840,819.910583 
	C892.434692,805.706543 896.053284,791.628479 897.445496,777.417053 
	C898.738586,764.217590 900.739929,750.725647 899.309570,737.705200 
	C897.096313,717.557129 874.569153,699.766785 853.129150,699.148010 
	C838.136780,698.715332 823.851135,701.997986 809.947998,707.799866 
	C787.592468,717.129028 768.999084,731.155762 752.063843,748.477783 
	C736.362183,764.538086 724.383118,782.863831 713.073425,801.874146 
	C698.837036,825.803955 681.487305,846.989075 660.615601,865.581055 
	C642.435730,881.775269 624.366516,897.982971 604.026001,911.462769 
	C584.007324,924.729187 562.547363,935.146423 538.678406,938.300171 
	C519.770508,940.798523 500.497162,941.721985 481.413208,941.448730 
	C441.982910,940.884155 403.866547,932.160583 366.786804,919.195923 
	C339.189636,909.546753 312.538452,897.515869 288.417664,880.837158 
	C277.994751,873.630005 268.351929,864.986511 259.502930,855.879822 
	C244.195938,840.127136 229.843033,823.450562 214.978058,807.264160 
	C203.039047,794.263794 194.320984,779.028625 184.896683,764.293274 
	C178.509171,754.306152 171.371017,744.550110 166.723831,733.762268 
	C160.981903,720.433105 156.511414,706.367310 153.193329,692.220703 
	C145.380646,658.911133 143.413544,625.231384 147.492996,591.033936 
	C151.520966,557.268188 156.733002,523.800354 166.034515,491.084229 
	C173.536469,464.697693 181.801086,438.495148 196.204025,414.868683 
	C221.237030,373.804749 252.172226,337.787903 290.864838,309.045380 
	C309.445587,295.242828 331.235718,287.498657 353.500702,281.589172 
	C389.181854,272.118774 425.331635,269.293518 461.872284,275.652679 
	C498.730408,282.067139 535.521545,288.865753 572.350891,295.446625 
	C599.696045,300.332825 627.154175,304.646088 654.386230,310.092834 
	C700.526245,319.321411 745.055054,333.384369 786.717102,355.824982 
	C808.141541,367.364929 826.995056,382.250580 845.207520,398.145233 
	C861.519531,412.381317 877.827698,426.628143 894.398560,440.559753 
	C922.590393,464.261353 955.525940,477.661621 991.396729,484.593933 
	C1034.196045,492.865265 1076.197510,490.768860 1117.114990,475.008057 
	C1135.984985,467.739624 1153.242798,457.451080 1169.794067,445.906952 
	C1173.987305,442.982269 1178.504028,440.521362 1182.723877,437.938049 
	C1188.061646,442.489868 1188.079712,443.864044 1182.973022,448.919647 
	C1168.061157,463.682526 1151.056152,475.570374 1132.349854,484.956085 
	C1092.895996,504.751770 1051.171387,513.382385 1007.132019,508.848572 
	C968.003784,504.820251 930.445435,494.979736 897.279846,473.048615 
	C881.785522,462.802826 867.716370,450.368164 853.223572,438.650696 
	C837.815552,426.193359 822.891113,413.132202 807.360291,400.833862 
	C782.728149,381.328430 754.563171,368.156006 725.399475,357.151794 
	C694.892578,345.640778 663.638245,336.582458 631.554443,330.461426 
	C581.572388,320.925781 531.719971,310.673035 481.622375,301.798004 
	C461.041077,298.151917 439.973846,295.634216 419.112793,295.527924 
	C379.299835,295.325073 341.751831,305.161285 307.863739,326.963989 
	C290.702118,338.005341 276.815399,352.584991 263.717285,367.961761 
	C241.840027,393.645020 221.485611,420.457123 210.434952,452.805359 
	C203.249390,473.839355 197.039368,495.252747 191.415527,516.763672 
	C182.320251,551.552734 174.273987,586.670288 172.510071,622.718384 
	C170.361572,666.626587 178.034119,708.415039 201.519409,746.570251 
	C226.529099,787.202026 256.235168,823.654907 294.265686,852.781799 
	C314.628082,868.377014 337.969879,878.635132 361.708954,887.840881 
	C386.999817,897.648438 413.107483,904.923889 439.801697,909.561707 
	C461.106293,913.263123 482.597015,916.302612 504.388428,914.983032 
	C525.442993,913.708191 546.388550,910.948059 565.328796,901.376221 
	C578.861755,894.537109 591.985168,886.290894 603.823914,876.835205 
	C621.879700,862.414001 639.095825,846.853516 655.813354,830.881653 
	C664.239624,822.831116 671.342834,813.202087 678.059570,803.598145 
	C690.301086,786.094666 700.866211,767.354492 713.842896,750.444214 
	C733.554077,724.757996 756.816895,702.596741 786.729858,688.773621 
	C804.958496,680.350037 824.094971,674.548828 844.257446,673.625122 
	C870.652893,672.415833 891.864685,683.058960 909.120117,702.900757 
	C925.491089,721.725525 931.583496,742.882202 926.048584,767.260681 
	C923.620605,777.954895 921.180298,788.649353 918.512268,799.285156 
	C915.835022,809.957336 913.641785,820.576904 913.776733,831.744629 
	C913.980469,848.608276 920.700562,862.187439 931.476685,874.774536 
	C944.016174,889.421387 959.918396,897.830566 978.259155,901.112976 
	C987.527710,902.771729 997.403870,901.160034 1006.992371,900.735168 
	C1008.072083,900.687317 1009.597717,898.913391 1010.023560,897.641052 
	C1017.978333,873.872253 1024.916992,849.713806 1034.026733,826.402283 
	C1038.414185,815.175110 1046.458618,805.256836 1053.531250,795.228333 
	C1063.211182,781.502747 1073.551636,768.243347 1083.581299,754.763489 
	C1084.672119,753.297424 1085.579468,751.694885 1086.804443,749.555847 
	C1086.538940,748.807434 1086.040771,748.658752 1085.542725,748.510071 
M1347.694336,439.205322 
	C1279.894043,526.915649 1212.093628,614.626038 1143.961304,702.765747 
	C1145.754639,702.875732 1146.736206,702.950500 1147.719116,702.993958 
	C1164.007690,703.714539 1180.305664,704.276001 1196.577881,705.264954 
	C1200.325317,705.492676 1202.049438,703.514465 1203.894409,701.189636 
	C1224.141602,675.677185 1244.368164,650.148499 1264.588867,624.615295 
	C1291.869873,590.166931 1319.128784,555.701111 1346.420654,521.261475 
	C1362.943359,500.411316 1379.444458,479.543304 1396.085815,458.787994 
	C1404.402588,448.415253 1412.873413,438.157288 1421.566284,428.099609 
	C1424.518677,424.683807 1423.932007,422.624054 1420.811768,419.983276 
	C1410.138672,410.950287 1399.476929,401.895660 1389.073486,392.556793 
	C1385.295654,389.165588 1383.303345,389.909058 1380.580933,393.746552 
	C1369.896851,408.806061 1358.942383,423.673676 1347.694336,439.205322 
M1183.460327,606.947266 
	C1187.449951,606.697449 1191.467407,606.035034 1195.422119,606.302307 
	C1200.367310,606.636536 1203.448608,604.451172 1206.274902,600.754089 
	C1222.044922,580.126282 1237.946289,559.598938 1253.781006,539.020508 
	C1254.482056,538.109558 1254.970337,537.034973 1255.766846,535.681335 
	C1254.384033,535.681335 1253.718994,535.614136 1253.070801,535.690979 
	C1226.285156,538.866028 1199.521606,542.241760 1172.708130,545.158997 
	C1159.790527,546.564331 1149.521606,551.598755 1141.264160,562.014526 
	C1126.690186,580.397766 1111.331055,598.157959 1096.340820,616.212280 
	C1089.705322,624.204163 1085.690063,633.470154 1083.987305,643.643738 
	C1081.186523,660.378052 1078.865723,677.194275 1075.941162,693.905762 
	C1074.108521,704.378662 1071.478760,714.710144 1069.322144,725.128906 
	C1067.345215,734.678406 1071.359375,739.082520 1081.132080,737.885254 
	C1084.564209,737.464722 1087.988159,736.477112 1091.236572,735.267273 
	C1092.865601,734.660583 1094.719971,733.252380 1095.395630,731.729126 
	C1098.852905,723.935364 1103.920288,717.538574 1110.539917,712.207092 
	C1112.263062,710.819214 1114.004272,708.842407 1114.625977,706.798035 
	C1118.440430,694.253845 1122.688110,681.763672 1125.262573,668.948303 
	C1126.876099,660.916382 1130.580444,655.144043 1136.003662,649.434143 
	C1147.445801,637.387207 1158.501831,624.953247 1169.276733,612.303528 
	C1173.045044,607.879700 1177.522705,607.227966 1183.460327,606.947266 
M1062.068115,822.649719 
	C1063.103638,826.976196 1064.139038,831.302673 1065.251953,835.952881 
	C1068.787476,835.724670 1072.128052,835.788147 1075.363770,835.236450 
	C1080.533813,834.354919 1083.217407,836.293335 1083.923462,841.450928 
	C1084.217651,843.599243 1084.980469,845.683411 1085.509521,847.716797 
	C1101.304688,826.753052 1116.735962,806.272400 1132.402466,785.479553 
	C1119.256348,778.527039 1107.269287,769.139343 1097.740112,757.050110 
	C1089.611572,767.361145 1081.824707,777.526184 1073.723267,787.433899 
	C1065.677002,797.274231 1057.314209,806.855835 1048.700928,817.009827 
	C1054.269775,816.807068 1059.661499,815.465149 1062.068115,822.649719 
M1453.111084,383.259125 
	C1455.326294,377.437805 1454.037109,372.414886 1449.330444,368.459015 
	C1443.615112,363.655487 1437.885132,358.837646 1431.846680,354.460205 
	C1427.069702,350.997192 1421.678833,350.902863 1417.114746,354.884338 
	C1407.417236,363.344086 1397.981201,372.103699 1388.688721,380.513367 
	C1403.734131,392.987152 1417.844116,404.685364 1432.105225,416.508942 
	C1438.935791,405.838226 1445.916870,394.932404 1453.111084,383.259125 
M1177.474731,847.881348 
	C1179.911133,853.335876 1182.191528,858.867065 1184.824585,864.224976 
	C1187.901855,870.486389 1191.183594,871.409546 1197.279419,867.953491 
	C1205.902100,863.064941 1210.073120,855.030212 1211.903320,845.775208 
	C1214.334351,833.482300 1212.873047,821.240112 1210.210571,809.129761 
	C1209.965332,808.014221 1209.035522,806.354309 1208.171997,806.177734 
	C1199.970825,804.501099 1191.715332,803.090759 1183.510986,801.610291 
	C1183.305786,802.495789 1183.178467,802.815674 1183.163940,803.140625 
	C1182.586060,816.064575 1182.408936,829.022766 1176.366943,841.027954 
	C1175.596680,842.558533 1176.825562,845.095276 1177.474731,847.881348 
M1166.100464,831.505493 
	C1168.123535,821.957397 1170.136230,812.407043 1172.175903,802.862488 
	C1172.770874,800.078369 1171.289795,799.080139 1168.867432,798.450867 
	C1161.967529,796.658264 1154.992065,795.041260 1148.278931,792.690674 
	C1144.545532,791.383362 1142.874268,792.660522 1140.963501,795.438293 
	C1137.761108,800.093750 1134.107666,804.440857 1130.948486,809.123108 
	C1129.879028,810.708130 1128.970093,813.053040 1129.289917,814.814148 
	C1130.892334,823.636719 1132.762573,832.420105 1134.852295,841.142090 
	C1137.266846,851.219727 1146.593018,854.158508 1154.103027,846.885010 
	C1158.566040,842.562561 1161.970581,837.147034 1166.100464,831.505493 
M1247.929932,669.575623 
	C1247.134155,669.818054 1246.032471,669.805908 1245.587280,670.340332 
	C1235.180664,682.835083 1224.844849,695.388916 1214.411621,708.034302 
	C1231.049683,711.727600 1247.938110,714.003357 1265.170044,712.001343 
	C1266.004272,711.904419 1267.178711,711.311279 1267.484863,710.630249 
	C1270.337280,704.283264 1273.198975,697.927307 1275.613647,691.409424 
	C1276.014648,690.327271 1274.666260,687.889771 1273.452393,687.030640 
	C1265.233887,681.214050 1256.834351,675.653503 1247.929932,669.575623 
M1056.238037,840.024170 
	C1055.614380,835.445923 1054.990601,830.867737 1054.307861,825.856934 
	C1050.115356,826.540771 1046.432983,827.141357 1042.341675,827.808655 
	C1038.876343,839.434998 1035.218872,851.497559 1031.762085,863.617371 
	C1031.406616,864.863953 1031.751831,867.025635 1032.623169,867.782043 
	C1036.202026,870.889282 1040.110474,873.617249 1044.216919,876.726562 
	C1051.425293,872.008850 1058.574219,866.432007 1066.496094,862.357727 
	C1078.130859,856.373840 1078.368530,856.830811 1075.947388,844.565918 
	C1075.890869,844.280457 1075.608887,844.039673 1075.308838,843.595520 
	C1070.951294,843.978699 1066.508545,844.492859 1062.051147,844.715088 
	C1059.366577,844.848938 1056.546997,844.690247 1056.238037,840.024170 
M1222.573608,823.139954 
	C1224.618286,833.596191 1224.100220,843.985046 1221.775024,854.330994 
	C1220.882080,858.304138 1224.723755,865.791687 1229.241089,867.496582 
	C1233.394287,869.063965 1236.998413,867.025513 1239.866577,863.871521 
	C1240.757202,862.892090 1241.520874,861.788818 1242.276855,860.696777 
	C1250.785645,848.405396 1249.519165,835.290466 1245.416260,821.988098 
	C1245.051636,820.805603 1244.188110,819.477295 1243.167236,818.844788 
	C1235.799927,814.280151 1227.836792,811.302612 1218.970825,810.091003 
	C1220.157227,814.405457 1221.245972,818.364746 1222.573608,823.139954 
M1169.243042,648.749817 
	C1176.697754,639.297974 1184.152344,629.846069 1191.736694,620.229736 
	C1182.479614,617.402405 1179.735840,618.078491 1174.406616,624.691589 
	C1164.745117,636.680359 1153.769531,647.256104 1141.513428,656.593933 
	C1139.453857,658.163025 1138.101318,661.251526 1137.408081,663.896362 
	C1136.065186,669.020325 1135.695801,674.395142 1134.427734,679.544006 
	C1132.503174,687.358215 1130.156250,695.068359 1127.769531,703.606384 
	C1141.793213,685.076538 1155.317017,667.207153 1169.243042,648.749817 
z"/>
<path fill="#3E768D" opacity="1.000000" stroke="none" 
	d="
M961.304077,180.356140 
	C979.677979,146.049576 1008.915283,125.992645 1045.842529,119.749794 
	C1096.406006,111.201614 1141.121826,125.093369 1175.689209,164.348312 
	C1187.820923,178.125092 1199.090576,193.226334 1207.839844,209.308105 
	C1232.157593,254.005722 1225.685181,296.789886 1196.062500,336.949829 
	C1184.612793,352.472473 1171.334961,366.155334 1155.174927,376.900482 
	C1133.710693,391.172394 1110.418945,397.487915 1084.579712,394.246613 
	C1055.599487,390.611298 1027.579346,383.678406 1001.951111,369.399048 
	C965.633850,349.163940 944.269043,318.536163 939.808716,276.713898 
	C936.661316,247.201767 943.639648,219.559723 955.081421,192.733139 
	C956.841492,188.606430 959.095825,184.690536 961.304077,180.356140 
z"/>
<path fill="#010101" opacity="1.000000" stroke="none" 
	d="
M1347.891357,438.908936 
	C1358.942383,423.673676 1369.896851,408.806061 1380.580933,393.746552 
	C1383.303345,389.909058 1385.295654,389.165588 1389.073486,392.556793 
	C1399.476929,401.895660 1410.138672,410.950287 1420.811768,419.983276 
	C1423.932007,422.624054 1424.518677,424.683807 1421.566284,428.099609 
	C1412.873413,438.157288 1404.402588,448.415253 1396.085815,458.787994 
	C1379.444458,479.543304 1362.943359,500.411316 1346.420654,521.261475 
	C1319.128784,555.701111 1291.869873,590.166931 1264.588867,624.615295 
	C1244.368164,650.148499 1224.141602,675.677185 1203.894409,701.189636 
	C1202.049438,703.514465 1200.325317,705.492676 1196.577881,705.264954 
	C1180.305664,704.276001 1164.007690,703.714539 1147.719116,702.993958 
	C1146.736206,702.950500 1145.754639,702.875732 1143.961304,702.765747 
	C1212.093628,614.626038 1279.894043,526.915649 1347.891357,438.908936 
z"/>
<path fill="#010101" opacity="1.000000" stroke="none" 
	d="
M1183.007568,606.969971 
	C1177.522705,607.227966 1173.045044,607.879700 1169.276733,612.303528 
	C1158.501831,624.953247 1147.445801,637.387207 1136.003662,649.434143 
	C1130.580444,655.144043 1126.876099,660.916382 1125.262573,668.948303 
	C1122.688110,681.763672 1118.440430,694.253845 1114.625977,706.798035 
	C1114.004272,708.842407 1112.263062,710.819214 1110.539917,712.207092 
	C1103.920288,717.538574 1098.852905,723.935364 1095.395630,731.729126 
	C1094.719971,733.252380 1092.865601,734.660583 1091.236572,735.267273 
	C1087.988159,736.477112 1084.564209,737.464722 1081.132080,737.885254 
	C1071.359375,739.082520 1067.345215,734.678406 1069.322144,725.128906 
	C1071.478760,714.710144 1074.108521,704.378662 1075.941162,693.905762 
	C1078.865723,677.194275 1081.186523,660.378052 1083.987305,643.643738 
	C1085.690063,633.470154 1089.705322,624.204163 1096.340820,616.212280 
	C1111.331055,598.157959 1126.690186,580.397766 1141.264160,562.014526 
	C1149.521606,551.598755 1159.790527,546.564331 1172.708130,545.158997 
	C1199.521606,542.241760 1226.285156,538.866028 1253.070801,535.690979 
	C1253.718994,535.614136 1254.384033,535.681335 1255.766846,535.681335 
	C1254.970337,537.034973 1254.482056,538.109558 1253.781006,539.020508 
	C1237.946289,559.598938 1222.044922,580.126282 1206.274902,600.754089 
	C1203.448608,604.451172 1200.367310,606.636536 1195.422119,606.302307 
	C1191.467407,606.035034 1187.449951,606.697449 1183.007568,606.969971 
z"/>
<path fill="#020202" opacity="1.000000" stroke="none" 
	d="
M1061.994629,822.261841 
	C1059.661499,815.465149 1054.269775,816.807068 1048.700928,817.009827 
	C1057.314209,806.855835 1065.677002,797.274231 1073.723267,787.433899 
	C1081.824707,777.526184 1089.611572,767.361145 1097.740112,757.050110 
	C1107.269287,769.139343 1119.256348,778.527039 1132.402466,785.479553 
	C1116.735962,806.272400 1101.304688,826.753052 1085.509521,847.716797 
	C1084.980469,845.683411 1084.217651,843.599243 1083.923462,841.450928 
	C1083.217407,836.293335 1080.533813,834.354919 1075.363770,835.236450 
	C1072.128052,835.788147 1068.787476,835.724670 1065.251953,835.952881 
	C1064.139038,831.302673 1063.103638,826.976196 1061.994629,822.261841 
z"/>
<path fill="#020202" opacity="1.000000" stroke="none" 
	d="
M1453.004517,383.642822 
	C1445.916870,394.932404 1438.935791,405.838226 1432.105225,416.508942 
	C1417.844116,404.685364 1403.734131,392.987152 1388.688721,380.513367 
	C1397.981201,372.103699 1407.417236,363.344086 1417.114746,354.884338 
	C1421.678833,350.902863 1427.069702,350.997192 1431.846680,354.460205 
	C1437.885132,358.837646 1443.615112,363.655487 1449.330444,368.459015 
	C1454.037109,372.414886 1455.326294,377.437805 1453.004517,383.642822 
z"/>
<path fill="#030303" opacity="1.000000" stroke="none" 
	d="
M1177.301514,847.523621 
	C1176.825562,845.095276 1175.596680,842.558533 1176.366943,841.027954 
	C1182.408936,829.022766 1182.586060,816.064575 1183.163940,803.140625 
	C1183.178467,802.815674 1183.305786,802.495789 1183.510986,801.610291 
	C1191.715332,803.090759 1199.970825,804.501099 1208.171997,806.177734 
	C1209.035522,806.354309 1209.965332,808.014221 1210.210571,809.129761 
	C1212.873047,821.240112 1214.334351,833.482300 1211.903320,845.775208 
	C1210.073120,855.030212 1205.902100,863.064941 1197.279419,867.953491 
	C1191.183594,871.409546 1187.901855,870.486389 1184.824585,864.224976 
	C1182.191528,858.867065 1179.911133,853.335876 1177.301514,847.523621 
z"/>
<path fill="#030303" opacity="1.000000" stroke="none" 
	d="
M1165.975830,831.864258 
	C1161.970581,837.147034 1158.566040,842.562561 1154.103027,846.885010 
	C1146.593018,854.158508 1137.266846,851.219727 1134.852295,841.142090 
	C1132.762573,832.420105 1130.892334,823.636719 1129.289917,814.814148 
	C1128.970093,813.053040 1129.879028,810.708130 1130.948486,809.123108 
	C1134.107666,804.440857 1137.761108,800.093750 1140.963501,795.438293 
	C1142.874268,792.660522 1144.545532,791.383362 1148.278931,792.690674 
	C1154.992065,795.041260 1161.967529,796.658264 1168.867432,798.450867 
	C1171.289795,799.080139 1172.770874,800.078369 1172.175903,802.862488 
	C1170.136230,812.407043 1168.123535,821.957397 1165.975830,831.864258 
z"/>
<path fill="#030303" opacity="1.000000" stroke="none" 
	d="
M1248.211670,669.792847 
	C1256.834351,675.653503 1265.233887,681.214050 1273.452393,687.030640 
	C1274.666260,687.889771 1276.014648,690.327271 1275.613647,691.409424 
	C1273.198975,697.927307 1270.337280,704.283264 1267.484863,710.630249 
	C1267.178711,711.311279 1266.004272,711.904419 1265.170044,712.001343 
	C1247.938110,714.003357 1231.049683,711.727600 1214.411621,708.034302 
	C1224.844849,695.388916 1235.180664,682.835083 1245.587280,670.340332 
	C1246.032471,669.805908 1247.134155,669.818054 1248.211670,669.792847 
z"/>
<path fill="#040404" opacity="1.000000" stroke="none" 
	d="
M1056.336426,840.439758 
	C1056.546997,844.690247 1059.366577,844.848938 1062.051147,844.715088 
	C1066.508545,844.492859 1070.951294,843.978699 1075.308838,843.595520 
	C1075.608887,844.039673 1075.890869,844.280457 1075.947388,844.565918 
	C1078.368530,856.830811 1078.130859,856.373840 1066.496094,862.357727 
	C1058.574219,866.432007 1051.425293,872.008850 1044.216919,876.726562 
	C1040.110474,873.617249 1036.202026,870.889282 1032.623169,867.782043 
	C1031.751831,867.025635 1031.406616,864.863953 1031.762085,863.617371 
	C1035.218872,851.497559 1038.876343,839.434998 1042.341675,827.808655 
	C1046.432983,827.141357 1050.115356,826.540771 1054.307861,825.856934 
	C1054.990601,830.867737 1055.614380,835.445923 1056.336426,840.439758 
z"/>
<path fill="#040404" opacity="1.000000" stroke="none" 
	d="
M1222.454102,822.731995 
	C1221.245972,818.364746 1220.157227,814.405457 1218.970825,810.091003 
	C1227.836792,811.302612 1235.799927,814.280151 1243.167236,818.844788 
	C1244.188110,819.477295 1245.051636,820.805603 1245.416260,821.988098 
	C1249.519165,835.290466 1250.785645,848.405396 1242.276855,860.696777 
	C1241.520874,861.788818 1240.757202,862.892090 1239.866577,863.871521 
	C1236.998413,867.025513 1233.394287,869.063965 1229.241089,867.496582 
	C1224.723755,865.791687 1220.882080,858.304138 1221.775024,854.330994 
	C1224.100220,843.985046 1224.618286,833.596191 1222.454102,822.731995 
z"/>
<path fill="#060606" opacity="1.000000" stroke="none" 
	d="
M1169.041992,649.043823 
	C1155.317017,667.207153 1141.793213,685.076538 1127.769531,703.606384 
	C1130.156250,695.068359 1132.503174,687.358215 1134.427734,679.544006 
	C1135.695801,674.395142 1136.065186,669.020325 1137.408081,663.896362 
	C1138.101318,661.251526 1139.453857,658.163025 1141.513428,656.593933 
	C1153.769531,647.256104 1164.745117,636.680359 1174.406616,624.691589 
	C1179.735840,618.078491 1182.479614,617.402405 1191.736694,620.229736 
	C1184.152344,629.846069 1176.697754,639.297974 1169.041992,649.043823 
z"/>
<path fill="#000000" opacity="1.000000" stroke="none" 
	d="
M1085.829224,748.771118 
	C1086.040771,748.658752 1086.538940,748.807434 1086.895508,749.213989 
	C1086.541382,749.325256 1086.328491,749.178711 1085.829224,748.771118 
z"/>
</svg>