<svg version="1.1" id="Layer_1" xmlns="http://www.w3.org/2000/svg" xmlns:xlink="http://www.w3.org/1999/xlink" x="0px" y="0px"
	 width="100%" viewBox="0 0 1024 560" enable-background="new 0 0 1024 560" xml:space="preserve">
<path fill="currentColor" opacity="1.000000" stroke="none" 
	d="
M441.068665,417.071289 
	C431.631500,420.162201 426.589966,428.032562 420.092438,434.130951 
	C418.155823,435.948547 416.260223,437.812225 414.273804,439.573578 
	C412.751282,440.923584 410.989044,441.351013 409.308716,439.909271 
	C407.694153,438.523987 408.667023,436.959137 409.140808,435.344269 
	C413.702850,419.794586 425.786224,412.939301 440.046661,408.825592 
	C444.810974,407.451263 448.482788,405.276550 452.093445,401.650330 
	C459.845276,393.865204 468.575348,387.126434 479.594971,384.211578 
	C482.727509,383.382996 485.857758,383.891541 489.208313,383.795868 
	C489.830017,381.448303 488.377136,379.614960 487.833008,377.642212 
	C481.632477,355.160187 481.312775,332.498230 484.070312,309.400543 
	C486.933319,285.419434 496.751465,264.018951 506.156860,242.353134 
	C508.498627,236.958817 510.029541,231.395187 510.503754,225.530807 
	C510.677002,223.388687 509.826935,222.438980 508.043335,220.907822 
	C501.773193,215.525085 494.060791,215.137268 486.700378,213.488647 
	C465.991028,208.850082 449.181427,198.347458 437.088867,180.729843 
	C432.301636,173.755341 428.880157,165.839066 428.110168,157.646790 
	C426.510010,140.622437 436.220520,131.088562 452.490631,131.011154 
	C480.807678,130.876419 502.346313,143.486221 515.361267,169.305420 
	C519.316711,177.152267 524.133911,184.624451 525.521362,194.824005 
	C527.274048,192.108871 528.432800,190.404846 529.500610,188.645599 
	C540.867310,169.918869 557.158203,156.871109 577.040039,148.312683 
	C587.735901,143.708511 598.997803,144.150101 609.703186,148.363022 
	C615.636353,150.697891 620.289368,155.157593 622.030640,161.873199 
	C626.358154,178.563538 621.086731,192.059082 606.322021,202.293213 
	C589.539673,213.925858 570.699951,220.021271 550.768616,223.296127 
	C545.516663,224.159088 540.314392,225.353210 535.045654,226.076950 
	C531.176270,226.608444 530.756531,229.920090 529.407043,232.392120 
	C518.378662,252.593857 512.067566,274.476440 506.501556,296.648193 
	C501.728821,315.659912 500.464447,334.776184 504.304932,354.044037 
	C506.161407,363.357880 509.986877,372.104340 513.197693,381.016418 
	C513.998962,383.240387 515.423340,383.457550 517.538635,382.904785 
	C530.847778,379.426910 541.025879,384.274994 548.742981,395.073395 
	C553.144531,401.232361 559.619873,402.915436 566.360229,402.511322 
	C575.198364,401.981476 581.381775,406.005005 586.677124,412.160065 
	C591.250732,417.476166 595.948181,422.613800 601.420837,427.041168 
	C603.450989,428.683472 606.009460,430.919434 603.495483,433.680328 
	C601.144775,436.261963 598.304565,435.061279 595.969177,432.982239 
	C593.112793,430.439270 590.019714,428.096558 587.506409,425.246307 
	C580.146912,416.900177 571.084351,411.814514 560.124451,410.096161 
	C552.628296,408.920898 546.371277,405.416992 540.835876,400.332886 
	C536.310303,396.176300 531.028748,393.494537 524.785461,392.967560 
	C523.435120,392.853546 522.029175,392.483124 521.423950,394.184143 
	C519.768677,398.836548 516.949585,397.437195 514.537476,395.227234 
	C511.202515,392.171814 507.682739,390.742523 503.258698,392.261841 
	C503.105713,392.314362 502.840942,392.231537 502.775055,392.320526 
	C498.095856,398.639679 492.814728,394.386414 487.674835,393.258362 
	C486.586578,393.019531 485.229919,393.045868 484.235809,393.487610 
	C476.484924,396.931946 468.137451,399.599396 461.831665,405.373840 
	C455.802063,410.895264 449.651001,415.569702 441.068665,417.071289 
M532.305237,217.070053 
	C529.144043,215.749802 526.133911,215.159775 522.503540,216.022018 
	C519.485229,216.738907 516.319092,215.291855 514.941711,211.724655 
	C510.135712,199.277359 501.123840,193.040024 487.679199,193.305710 
	C485.439636,193.349991 482.860016,193.598419 482.049255,190.045059 
	C486.171051,187.329971 491.098846,189.645874 496.088898,187.998657 
	C491.398865,183.807251 487.126373,179.921616 482.762268,176.141785 
	C481.810272,175.317230 480.697632,174.279861 479.189972,174.888260 
	C473.087524,177.350937 466.669617,175.416656 460.443481,176.231384 
	C459.091248,176.408310 457.343323,176.672882 456.443634,174.230713 
	C461.549530,170.268753 468.167023,171.473694 474.102814,169.949127 
	C468.426971,163.799240 460.122406,161.844467 454.901550,155.687561" />
<path fill="currentColor" d="M480.598328,413.790802 C477.312714,415.546143 474.240875,417.193573 470.864563,415.870483 C468.340698,414.881439 466.317749,412.964600 466.429688,409.897614 C466.556366,406.426727 471.275177,401.810791 475.110992,401.331329 C478.003265,400.969757 479.877228,401.938934 481.386444,404.851868 C483.092133,408.144012 485.729034,410.866547 480.598328,413.790802 z" />
<path fill="currentColor" d="M441.938843,436.270325 C437.563538,430.850891 438.765625,424.931091 444.593628,422.207642 C447.267609,420.958069 449.799896,421.192230 451.291626,424.263000 C451.432404,424.552856 451.410065,424.918213 451.528564,425.223206 C452.313843,427.244995 457.541504,427.762970 454.080841,431.061218 C450.899994,434.092804 447.855377,438.362762 441.938843,436.270325 z" />
<path fill="currentColor" d="M471.956940,428.381348 C473.402161,425.614471 475.081360,423.059296 478.086395,424.011169 C480.867981,424.892273 482.827698,427.473480 484.336548,429.980011 C485.190796,431.399048 484.093994,432.868652 482.805908,433.757935 C480.918793,435.060852 478.864807,436.683319 476.496765,435.462860 C473.897888,434.123505 471.141235,432.556732 471.956940,428.381348 z" />
<path fill="currentColor" d="M529.072266,408.994904 C526.793457,406.504639 525.828796,404.168091 528.643738,401.957245 C530.776062,400.282471 532.777283,401.257660 534.263000,403.045593 C535.864075,404.972290 538.580017,406.940155 536.207214,409.810120 C533.931274,412.562927 531.515991,411.093079 529.072266,408.994904 z" />
<path fill="currentColor" d="M572.116455,430.779358 C571.740967,432.604126 570.630127,433.367767 569.508057,434.090088 C566.887878,435.776855 563.880127,437.566437 561.762695,433.973419 C560.056274,431.077759 562.883118,429.506226 565.002319,428.241333 C568.062073,426.414948 571.016846,425.538757 572.116455,430.779358 z" />
<path fill="currentColor" d="M503.753052,415.962402 C499.342682,418.839752 497.882721,415.221222 496.124420,412.853333 C495.278198,411.713745 496.040680,410.321869 497.177399,409.362335 C498.251556,408.455658 499.602325,407.539978 500.742706,408.539215 C502.825165,410.363861 506.220215,411.825714 503.753052,415.962402 z" />
<path fill="currentColor" d="M509.059326,429.110535 C511.662659,427.305420 513.904663,427.186951 515.239990,429.893829 C516.439697,432.325836 514.262756,433.479767 512.654480,434.588867 C511.456909,435.414795 510.089722,435.383545 508.990082,434.302216 C507.423584,432.761841 507.519562,431.074127 509.059326,429.110535 z" />
</svg>