<svg version="1.1" id="Layer_1" xmlns="http://www.w3.org/2000/svg" xmlns:xlink="http://www.w3.org/1999/xlink" x="0px" y="0px"
	 width="100%" viewBox="0 0 1024 560" enable-background="new 0 0 1024 560" xml:space="preserve">
<path fill="#000000" opacity="1.000000" stroke="none" 
	d="
M443.410278,470.531494 
	C426.516144,474.737335 410.947327,481.795654 394.450073,485.914764 
	C390.697205,486.851837 387.034637,487.500549 383.133453,486.692139 
	C372.398376,484.467529 368.420105,474.306427 374.901581,465.395508 
	C378.360138,460.640594 377.407745,456.569855 372.150635,453.903290 
	C369.159058,452.385895 366.342957,450.704956 364.150696,448.058380 
	C361.274902,444.586578 360.100616,440.888519 361.764679,436.485718 
	C363.172882,432.759949 363.786133,428.805908 365.152679,425.024261 
	C366.375000,421.641632 365.855896,418.243530 360.944763,417.205872 
	C355.659058,416.089081 354.002625,412.006836 356.982422,407.382996 
	C358.824738,404.524200 358.479675,402.261932 357.186096,399.530884 
	C352.116241,388.826935 346.099487,378.651825 340.178589,368.413147 
	C329.441925,349.846863 322.124451,329.808624 315.847992,309.423615 
	C310.075043,290.673981 301.893280,273.056946 292.086456,256.193573 
	C284.331909,242.859207 279.182495,228.454819 273.629120,214.206314 
	C272.514374,211.346268 272.783081,207.924973 275.149902,205.405823 
	C277.657959,202.736343 280.361603,204.652771 282.408630,205.982971 
	C305.113373,220.736862 330.720001,230.003586 353.851288,243.892807 
	C360.962738,248.162918 367.378662,253.589767 374.125153,258.470276 
	C376.382782,260.103455 378.677917,261.684753 381.456635,263.642517 
	C384.159790,256.354248 385.035278,249.281586 386.616425,242.403702 
	C390.088043,227.302460 392.380249,212.040756 392.877777,196.516235 
	C392.981079,193.291840 393.530823,190.142776 397.154541,188.139252 
	C400.989227,186.019073 403.586304,186.633041 406.320160,189.695862 
	C415.193970,199.637375 422.411041,210.929306 431.700470,220.540405 
	C436.436981,225.440964 441.108398,230.410965 444.951752,236.129227 
	C447.991272,240.651596 449.662262,240.552322 452.517456,235.911591 
	C466.918304,212.505173 481.444000,189.171249 495.502106,165.559586 
	C508.699158,143.394196 522.155640,121.358429 533.697083,98.249908 
	C537.116882,91.402847 540.039612,84.298019 544.310791,77.901466 
	C547.845276,72.608200 551.697876,72.622009 555.105347,78.064781 
	C563.007935,90.687584 567.138977,104.810219 570.001465,119.172501 
	C577.213623,155.359482 586.510864,190.795944 603.742798,223.730896 
	C606.275208,228.571121 608.208862,233.724686 610.575256,239.086121 
	C621.002930,226.902634 633.316895,216.930069 642.150024,203.752792 
	C430.672485,290.300476 430.672485,290.300476 430.672485,290.300476 
	C429.131805,293.062012 427.675934,295.914276 425.785187,298.426880 
	C422.973755,302.162933 419.671539,302.126404 416.876984,298.332642 
	C415.873779,296.970703 414.679596,296.524597 413.329437,295.895905 
	C407.449005,293.157684 401.322296,290.788574 395.834747,287.396240 
	C378.701569,276.804718 362.187653,265.225464 344.578461,255.382416 
	C329.133820,246.749298 315.396332,235.514038 300.408020,226.187820 
	C296.188812,223.562485 292.063354,220.501541 286.383453,219.216904 
	C286.917267,222.440216 288.302002,224.327209 289.547974,226.240646 
	C295.731903,235.737335 301.870514,245.307007 305.654480,256.040863 
	C312.412933,275.212372 320.893005,293.641235 328.729675,312.357697 
	C340.377747,340.177124 355.674683,366.269440 366.324402,394.495728 
	C367.663879,398.045776 369.460907,398.654785 373.177002,397.397797 
	C380.092163,395.058716 387.205933,393.170776 394.361908,391.704285 
	C419.618683,386.528137 444.907867,381.563354 470.540649,378.442200 
	C484.883057,376.695770 499.110962,373.997070 513.380310,371.665436 
	C533.868469,368.317566 554.542725,366.245728 574.694824,360.728668 
	C615.050110,349.680511 656.425964,345.463135 698.102966,343.940857 
	C703.189758,343.755096 705.086609,342.071198 705.736572,337.207062 
	C707.321655,325.344788 709.638550,313.599487 712.242126,301.909393 
	C717.276245,279.306793 724.102844,257.216034 730.913757,235.111450 
	C621.002930,226.902634 633.316895,216.930069 642.150024,203.752792 
	C645.197754,199.206238 649.037292,195.195374 652.438782,190.879623 
	C655.975769,186.391983 661.542236,185.648239 666.332581,184.080933 
	C670.447998,182.734451 672.264587,187.076660 672.983276,190.563065 
	C673.784790,194.451614 674.193726,198.430466 674.231506,202.460312 
	C674.343323,214.395950 672.213440,226.398331 675.253113,238.262802 
	C675.704041,240.022675 675.631958,241.917816 677.580750,243.285324 
	C681.148926,241.555389 683.694336,238.421204 686.514221,235.737503 
	C701.596191,221.383881 715.971680,206.328445 730.393494,191.316910 
	C734.417786,187.128143 738.890442,183.326859 743.434631,179.694687 
	C747.039429,176.813385 749.104004,178.279938 751.438965,182.246094 
	C756.409851,190.689697 752.732239,197.524445 748.975098,204.913544 
	C746.516846,209.748291 745.152283,215.180481 743.633972,220.442078 
	C741.375916,228.267105 739.180725,236.124390 737.368591,244.061523 
	C730.114746,275.833435 722.720825,307.580383 716.181335,339.501007 
	C715.182007,344.378601 715.271973,349.639282 713.727844,354.611359 
	C712.753906,357.747375 715.762634,359.421478 717.338623,361.302704 
	C726.709473,372.488678 723.945374,375.570374 715.008362,385.367584 
	C714.784790,385.612701 714.496948,385.799683 714.275818,386.046661 
	C710.785583,389.943787 711.752747,394.602051 716.678650,396.268250 
	C721.182434,397.791656 724.216492,400.406494 725.102356,405.169281 
	C725.572021,407.694092 725.788147,410.651733 723.853516,412.295868 
	C718.344971,416.977203 713.661072,422.869690 705.384583,423.445892 
	C689.437439,424.556122 673.863220,428.343018 658.099915,430.802002 
	C617.181458,437.185059 576.558167,445.139771 536.014282,453.574585 
	C516.327576,457.670258 496.190186,459.270416 476.432709,463.170502 
	C465.492065,465.330139 454.609528,467.687164 443.410278,470.531494 
z"/>
</svg>