<svg version="1.1" id="Layer_1" xmlns="http://www.w3.org/2000/svg" xmlns:xlink="http://www.w3.org/1999/xlink" x="0px" y="0px"
	 width="100%" viewBox="0 0 1024 560" enable-background="new 0 0 1024 560" xml:space="preserve">
<path fill="#000000" opacity="1.000000" stroke="none" 
	d="
M442.584351,315.327698 
	C428.296234,303.820404 412.466309,294.972839 398.929962,283.045197 
	C392.562561,277.434540 386.385071,271.604736 380.220459,265.769714 
	C378.166260,263.825287 376.466766,261.528076 375.608612,258.735840 
	C373.747772,252.681061 375.333588,250.028763 381.129486,247.557800 
	C390.667755,243.491379 400.669037,242.097382 410.859222,241.814041 
	C429.170929,241.304901 447.488525,240.933868 465.806030,240.763062 
	C469.854523,240.725311 471.868774,239.688751 473.334717,235.546783 
	C478.776123,220.172226 484.886780,205.036133 490.536041,189.732941 
	C494.105255,180.064331 496.726410,170.034592 501.696991,160.912735 
	C502.649933,159.163849 503.567871,157.356339 504.787262,155.799316 
	C509.140564,150.240723 514.543152,150.463776 519.345520,156.288788 
	C526.662292,165.163544 531.143494,175.574966 535.065369,186.194443 
	C540.716309,201.495834 546.035095,216.921585 551.339722,232.347855 
	C552.485107,235.678665 554.118103,237.172256 557.846680,236.877060 
	C581.138855,235.032959 604.448486,237.259995 627.752930,236.765884 
	C635.443542,236.602814 642.460022,239.014282 649.087097,242.846405 
	C651.880493,244.461639 652.636292,246.440201 651.770508,249.480606 
	C650.448364,254.123276 647.636841,257.784576 644.537476,261.297882 
	C634.166992,273.053345 620.510681,280.768677 608.532593,290.548065 
	C600.534241,297.078186 592.500488,303.566589 584.397705,309.966125 
	C582.031677,311.834778 581.421509,313.595001 582.167786,316.756500 
	C587.831909,340.750793 595.246460,364.217468 603.305664,387.478516 
	C605.990906,395.229065 605.960144,402.554718 602.965820,410.063507 
	C601.820007,412.936737 599.602112,413.464691 596.935486,413.404083 
	C588.251831,413.206726 580.971680,409.156250 573.742432,404.967926 
	C557.527893,395.573914 543.454651,383.244690 528.563965,372.034180 
	C524.315918,368.835968 520.050110,363.681458 515.540283,363.395203 
	C511.435181,363.134644 507.079315,368.419952 502.673492,370.985107 
	C491.796021,377.318115 482.578979,385.755798 472.949860,393.719391 
	C462.660797,402.228821 451.506805,409.613678 439.180695,414.878204 
	C430.081726,418.764435 423.283752,413.579926 424.117218,403.657196 
	C424.491058,399.206482 425.288269,394.749908 426.341309,390.404541 
	C431.826447,367.770325 438.504761,345.462128 445.138916,323.147797 
	C446.142944,319.770660 445.964447,317.380096 442.584351,315.327698 
M495.234741,201.574142 
	C490.845276,214.500641 486.543274,227.458115 481.985016,240.324799 
	C481.173248,242.616135 480.890289,245.776443 477.396973,246.214737 
	C474.597900,246.565964 471.820618,247.160812 469.013153,247.363815 
	C447.270294,248.936127 425.541290,250.682510 403.740631,251.415771 
	C396.902802,251.645752 389.977753,252.382217 383.431213,254.979782 
	C384.313812,258.636688 386.554413,260.712799 388.692261,262.759674 
	C398.224915,271.886414 408.535645,280.079132 419.667328,287.144592 
	C430.575989,294.068512 439.901367,302.899017 449.580292,311.293182 
	C452.335602,313.682709 454.813019,316.730774 453.926331,321.212402 
	C451.275116,334.612457 447.861145,347.773926 443.597412,360.773376 
	C439.453949,373.406097 435.358978,386.098877 432.841827,399.204193 
	C432.262390,402.220856 431.275146,405.302246 432.800354,408.141571 
	C434.679779,408.827820 435.705109,407.756226 436.759888,407.054016 
	C455.333466,394.688751 474.040527,382.509583 490.836792,367.694550 
	C496.834595,362.404236 503.048431,357.361053 510.088470,353.483765 
	C511.932312,352.468262 513.900330,351.354919 516.149170,352.839966 
	C527.792603,360.528625 539.609253,367.965698 551.074097,375.910980 
	C560.921875,382.735657 570.225891,390.345123 580.075989,397.166168 
	C584.412537,400.169159 588.859924,403.678802 594.914062,403.694946 
	C595.056580,402.622742 595.263245,401.976685 595.207642,401.354004 
	C593.703552,384.494202 589.715393,368.036774 583.545227,352.478088 
	C578.840332,340.614044 575.093689,328.728058 572.603149,316.298218 
	C572.001038,313.293488 572.666138,311.291718 574.582214,309.116821 
	C580.335571,302.586243 586.945984,297.003845 593.521484,291.359802 
	C607.547791,279.320404 623.167053,269.201843 636.187012,255.951385 
	C638.240845,253.861206 640.543640,251.948486 641.410278,248.855148 
	C638.210693,246.839401 634.939636,246.443436 631.606323,246.449554 
	C628.448425,246.455353 625.286682,246.776962 622.133850,246.691833 
	C607.988708,246.309906 593.846313,245.519348 579.702637,245.514938 
	C572.063354,245.512543 564.454590,246.043503 556.769226,245.634018 
	C551.048157,245.329178 548.275391,242.570068 545.835449,238.054810 
	C535.483276,218.897324 528.930420,198.251328 521.945007,177.773941 
	C519.864929,171.676376 516.451416,166.376740 513.412231,160.371017 
	C503.580200,172.933273 500.206360,187.179321 495.234741,201.574142 
z"/>
</svg>