<svg version="1.1" id="Layer_1" xmlns="http://www.w3.org/2000/svg" xmlns:xlink="http://www.w3.org/1999/xlink" x="0px" y="0px"
	 width="100%" viewBox="0 0 1024 560" enable-background="new 0 0 1024 560" xml:space="preserve">
<path fill="#000000" opacity="1.000000" stroke="none" 
	d="
M607.615417,414.379883 
	C588.476318,394.811401 571.735352,373.610504 554.052307,353.236267 
	C549.999512,348.566772 546.360046,343.645752 546.535034,336.847656 
	C546.615295,333.732361 543.710327,332.060364 541.593079,330.278107 
	C538.808350,327.933960 537.273743,323.291351 533.776306,323.040253 
	C530.355774,322.794678 527.682556,326.681427 524.469421,328.414520 
	C514.091675,334.012085 503.061432,337.766388 491.331451,338.721588 
	C470.481506,340.419525 449.743073,340.431366 430.078644,331.563507 
	C417.359131,325.827515 406.696259,317.496155 398.505554,306.200958 
	C391.185150,296.105896 383.236084,286.443298 377.861481,275.004028 
	C375.257019,269.460693 373.559723,264.098053 373.777008,257.807770 
	C374.046021,250.020370 371.786621,242.359543 371.574677,234.490372 
	C371.121216,217.652695 375.707886,202.214691 383.698242,187.693100 
	C392.920013,170.933594 405.864838,157.384323 421.055695,145.916611 
	C428.228424,140.501862 436.267578,136.811829 445.175171,135.654205 
	C456.368042,134.199585 467.234741,130.642715 478.649292,130.657059 
	C491.705475,130.673447 504.068329,133.696228 515.799622,139.253754 
	C526.318237,144.236771 536.914795,148.988480 545.383118,157.515701 
	C556.850220,169.062515 566.737122,181.928162 570.552795,197.661926 
	C575.569702,218.348938 581.651917,239.317841 575.378540,261.032532 
	C571.520447,274.387024 566.805969,287.341614 557.779175,298.209778 
	C555.521484,300.927979 555.366028,302.975311 558.090637,305.348358 
	C559.581482,306.646851 560.811646,308.276154 562.016968,309.864380 
	C564.566895,313.224426 567.062744,316.098267 572.036987,316.048553 
	C575.518738,316.013733 578.396667,318.691559 581.265808,320.714905 
	C589.784485,326.722260 596.747070,334.340790 603.563660,342.117371 
	C614.129639,354.171448 626.078674,364.791504 637.890259,375.578766 
	C646.122620,383.097198 653.627869,391.380127 660.585693,400.124603 
	C661.621277,401.426086 662.518433,402.916107 663.784485,403.943024 
	C671.945374,410.562378 672.498169,418.994354 668.915894,427.852448 
	C665.580444,436.100037 658.881470,441.458893 650.244141,442.853363 
	C642.605957,444.086578 636.236572,439.322052 630.116760,435.361267 
	C621.506348,429.788605 615.000916,421.847321 607.615417,414.379883 
M483.547089,138.969055 
	C477.264679,138.019638 470.993927,137.942764 464.695831,138.942871 
	C449.606415,141.339050 436.190430,148.193573 423.224945,155.577301 
	C408.540680,163.939865 397.864288,176.218033 391.711548,192.366608 
	C386.334869,206.478210 382.628052,220.919571 381.503021,235.924667 
	C379.582031,261.546295 386.730438,283.850769 406.140533,301.644653 
	C419.716370,314.090118 436.117920,321.239624 452.995331,327.556671 
	C459.034027,329.816895 464.996063,332.630981 471.664459,332.663910 
	C495.641754,332.782318 517.142822,324.687286 535.123169,309.638672 
	C557.771912,290.682800 565.629028,263.920044 568.687927,235.602875 
	C570.296326,220.713684 566.376038,207.057083 558.791870,194.104706 
	C551.449219,181.564743 544.578003,168.891220 532.411438,160.088593 
	C517.902832,149.591476 502.335358,141.703583 483.547089,138.969055 
M637.300903,430.264160 
	C638.175293,430.744659 639.016174,431.303497 639.929382,431.693115 
	C646.346497,434.430908 652.708008,433.326508 657.432739,428.694489 
	C661.550598,424.657440 661.933167,419.664886 659.139893,412.613892 
	C657.071533,407.392670 654.024353,402.852081 650.177673,398.904724 
	C642.623413,391.152710 634.887573,383.576416 627.176147,375.978912 
	C609.505981,358.569824 589.452148,343.646016 573.125183,324.844025 
	C572.289795,323.880341 571.372314,322.798340 569.488770,322.689636 
	C565.090515,327.560547 560.668091,332.765045 554.852295,336.476807 
	C552.570618,337.933044 553.681213,339.523529 554.982422,341.037933 
	C559.321228,346.087250 563.547974,351.235718 567.977844,356.203339 
	C582.381348,372.355499 596.651489,388.634491 611.384277,404.482208 
	C619.509155,413.221924 626.354187,423.305115 637.300903,430.264160 
M546.082092,321.466156 
	C547.903503,323.320312 548.819275,326.002045 551.418274,327.380890 
	C554.516785,325.389526 556.842834,322.701172 559.243164,319.797943 
	C556.012817,315.984650 552.965698,312.387634 549.689636,308.520386 
	C546.524353,311.415314 543.669189,314.026550 540.621155,316.814240 
	C542.607056,318.452484 544.114868,319.696320 546.082092,321.466156 
z"/>
<path fill="#000000" opacity="1.000000" stroke="none" 
	d="
M553.226440,257.975677 
	C551.084534,264.003845 549.311401,269.756714 546.901672,275.229218 
	C539.840454,291.264832 528.827332,303.214478 512.020081,309.678345 
	C504.591370,312.535309 497.645752,316.647400 489.710022,318.230042 
	C471.922699,321.777313 455.235352,317.701874 439.360229,310.131927 
	C428.387939,304.899902 418.547485,298.155273 410.586395,288.318115 
	C397.824066,272.548248 392.409485,254.465714 392.913666,234.959381 
	C393.765778,201.991425 408.010986,176.293060 438.322723,161.273285 
	C453.325409,153.839310 469.615417,152.377487 486.125092,154.188751 
	C495.210907,155.185532 504.391144,156.327423 512.624695,160.738388 
	C534.088806,172.237427 549.887146,188.036957 552.450623,213.803299 
	C552.810852,217.424072 553.665222,221.031021 554.635864,224.549179 
	C557.718689,235.722824 555.914062,246.653397 553.226440,257.975677 
M541.974548,204.481705 
	C528.912354,178.075012 507.052399,163.455383 478.394897,160.626312 
	C452.588654,158.078720 431.326355,167.417160 416.768188,190.298111 
	C405.197144,208.484299 398.059448,227.445084 402.382019,249.243118 
	C406.049591,267.738159 414.368011,283.913513 429.177216,295.888214 
	C446.328400,309.756653 465.864807,314.469788 487.709351,309.550110 
	C496.859711,307.489319 506.093903,307.242126 513.614746,299.800812 
	C522.474365,291.034790 533.331299,283.818695 538.946167,272.527588 
	C549.746887,250.807800 552.459167,228.176498 541.974548,204.481705 
z"/>
<path fill="#000000" opacity="1.000000" stroke="none" 
	d="
M631.442505,421.581512 
	C617.410706,410.570892 606.398682,397.188416 595.603516,383.625336 
	C587.596069,373.564758 578.606873,364.433075 569.528076,355.376495 
	C565.862671,351.720032 562.058350,348.170563 560.157166,343.203247 
	C559.493652,341.469696 558.098816,339.635803 559.679016,337.719299 
	C560.933167,337.259186 561.758484,337.812683 562.390686,338.635956 
	C573.075317,352.550171 586.283081,364.136353 597.928772,377.166199 
	C607.911377,388.335175 616.780823,400.523071 628.130615,410.444824 
	C633.518311,415.154663 639.013000,419.741974 644.438782,424.408478 
	C645.526794,425.344238 647.267456,426.212250 646.227173,427.996429 
	C645.269470,429.639008 643.605530,428.992249 642.178162,428.499390 
	C638.156982,427.110962 634.913025,424.496796 631.442505,421.581512 
z"/>
<path fill="#000000" opacity="1.000000" stroke="none" 
	d="
M418.943817,202.052124 
	C429.896210,184.154984 453.579163,168.265320 463.063202,173.725403 
	C430.005096,185.262894 419.488373,212.302460 413.539093,243.123734 
	C411.032806,240.826508 410.799377,238.133194 410.644867,235.365967 
	C409.984344,223.534424 413.161194,212.657715 418.943817,202.052124 
z"/>
</svg>